<svg xmlns="http://www.w3.org/2000/svg" width="24" height="24" viewBox="0 0 24 24">
  <path fill="#ff375e" d="M17.983 8.785l-.865 9.231c-.054.672-.685 1.184-1.442 1.184H8.574c-.757 0-1.388-.512-1.442-1.184l-.865-9.23h11.716zm-3.731 2.128c-.342-.016-.63.208-.649.512l-.324 5.071c-.018.304.234.56.576.576h.037c.324 0 .594-.224.612-.512l.325-5.071c.018-.304-.234-.56-.577-.576zm-4.236 0c-.342.016-.595.272-.577.576l.325 5.071c.018.288.288.512.613.512h.036c.342-.016.594-.272.576-.576l-.324-5.071c-.018-.304-.307-.528-.649-.512zM12.179 4c1.433 0 2.611.965 2.774 2.204h2.72c.87 0 1.577.627 1.577 1.399 0 .193-.163.338-.38.338H5.38c-.217 0-.38-.145-.38-.338 0-.772.707-1.4 1.577-1.4h2.72C9.442 4.966 10.62 4 12.052 4zm.019 1.303h-.127c-.617 0-1.143.386-1.27.9h2.666c-.145-.514-.653-.9-1.27-.9z" fill-rule="nonzero"/>
</svg>