<svg xmlns="http://www.w3.org/2000/svg" width="24" height="24" viewBox="0 0 24 24">
  <path d="M20 11.5c0 2.27-.884 4.405-2.49 6.01C15.905 19.116 13.77 20 11.5 20c-1.59 0-3.112-.434-4.433-1.245l.974-.974c1.027.567 2.206.89 3.459.89 3.955 0 7.172-3.216 7.172-7.171 0-1.253-.324-2.432-.891-3.459l.974-.974C19.566 8.388 20 9.91 20 11.5zM3.968 19.972l-.94-.94 2.01-2.01C3.72 15.486 3 13.549 3 11.5c0-2.27.884-4.405 2.49-6.01C7.095 3.884 9.23 3 11.5 3c2.048 0 3.985.72 5.523 2.038l2.01-2.01.939.94L3.968 19.972zm2.015-3.895L16.077 5.983C14.835 4.95 13.24 4.328 11.5 4.328c-3.955 0-7.172 3.217-7.172 7.172 0 1.739.622 3.335 1.655 4.577z" fill="#4F008C" fill-rule="nonzero"/>
</svg>