<svg xmlns="http://www.w3.org/2000/svg" width="14" height="16" viewBox="0 0 14 16">
    <g fill="none" fill-rule="evenodd" opacity=".7">
        <g fill="#868894" fill-rule="nonzero">
            <g>
                <path d="M10.52 5.983c-.34 0-.62-.276-.62-.616V3.969c0-1.201-.84-2.311-1.99-2.638-1.25-.354-2.63.254-3.21 1.417-.15.304-.52.428-.82.277-.31-.152-.43-.521-.28-.826C4.44.514 6.44-.368 8.25.146c1.7.482 2.88 2.054 2.88 3.822v1.399c0 .341-.27.616-.61.616zM7.16 13.286c-.34 0-.62-.276-.62-.616v-2.126c0-.34.28-.616.62-.616.34 0 .61.276.61.616v2.126c0 .34-.27.616-.61.616z" transform="translate(-1077 -412) translate(1077 412)"/>
                <path d="M7.16 11.159c-1.02 0-1.85-.828-1.85-1.846 0-1.019.83-1.847 1.85-1.847s1.85.828 1.85 1.847c0 1.018-.83 1.846-1.85 1.846zm0-2.462c-.33 0-.62.282-.62.616 0 .333.29.615.62.615s.61-.282.61-.615c0-.334-.28-.616-.61-.616zM1.12 15.384c-.34 0-.62-.275-.62-.615V5.983c0-.34.28-.616.62-.616.34 0 .61.276.61.616v8.786c0 .34-.27.615-.61.615zM13.2 15.384c-.34 0-.61-.275-.61-.615V5.983c0-.34.27-.616.61-.616.34 0 .62.276.62.616v8.786c0 .34-.28.615-.62.615z" transform="translate(-1077 -412) translate(1077 412)"/>
                <path d="M1.12 6.599c-.34 0-.62-.276-.62-.616 0-.679.55-1.231 1.23-1.231.34 0 .62.276.62.615 0 .34-.28.616-.62.616 0 .34-.27.616-.61.616z" transform="translate(-1077 -412) translate(1077 412)"/>
                <path d="M12.59 5.983H1.73c-.34 0-.61-.276-.61-.616 0-.339.27-.615.61-.615h10.86c.34 0 .61.276.61.615 0 .34-.27.616-.61.616z" transform="translate(-1077 -412) translate(1077 412)"/>
                <path d="M13.2 6.599c-.34 0-.61-.276-.61-.616v-.001c-.34 0-.62-.275-.62-.615 0-.34.28-.615.62-.615.68 0 1.23.552 1.23 1.231 0 .34-.28.616-.62.616zM12.59 16c-.34 0-.62-.276-.62-.616 0-.339.28-.615.62-.615 0-.34.27-.616.61-.616.34 0 .62.276.62.616 0 .679-.55 1.231-1.23 1.231z" transform="translate(-1077 -412) translate(1077 412)"/>
                <path d="M12.59 16H1.73c-.34 0-.61-.276-.61-.616 0-.339.27-.615.61-.615h10.86c.34 0 .61.276.61.615 0 .34-.27.616-.61.616z" transform="translate(-1077 -412) translate(1077 412)"/>
                <path d="M1.73 16C1.05 16 .5 15.448.5 14.769c0-.34.28-.616.62-.616.34 0 .61.276.61.616v.001c.34 0 .62.275.62.615 0 .34-.28.615-.62.615z" transform="translate(-1077 -412) translate(1077 412)"/>
            </g>
        </g>
    </g>
</svg>
