<svg xmlns="http://www.w3.org/2000/svg" viewBox="0 0 25 25" width="24">
  <path d="M6.572 17.857h10.87c1.038 0 1.973-.654 2.37-1.655.397-1 .177-2.153-.556-2.92l-1.618-1.69V8.881C17.638 5.633 15.117 3 12.007 3c-3.11 0-5.631 2.633-5.631 5.881v2.711l-1.619 1.69c-.733.767-.953 1.92-.556 2.92.397 1.001 1.332 1.654 2.37 1.655zm-.558-3.262l2.14-2.235V8.881c0-2.222 1.725-4.024 3.853-4.024s3.853 1.802 3.853 4.024v3.479L18 14.595c.225.235.292.59.17.897-.122.307-.409.508-.728.508H6.572c-.32 0-.606-.2-.728-.508s-.055-.662.17-.897zM9.721 19h5.714v2.286H9.721z" fill="#1D252D" fill-rule="nonzero"/>
</svg>