<svg xmlns="http://www.w3.org/2000/svg" width="16" height="16" viewBox="0 0 16 16">
    <g fill="none" fill-rule="evenodd" opacity=".7">
        <g fill="#868894" fill-rule="nonzero">
            <g>
                <path d="M1.1 14.656c-.07 0-.14-.011-.21-.035-.54-.185-.9-.681-.89-1.235.01-.34.29-.623.65-.606.35.006.63.286.62.626 0 .024.02.046.04.054.33.113.5.465.39.785-.1.253-.34.411-.6.411z" transform="translate(-1076 -337) translate(1076 337)"/>
                <path d="M.64 14.011H.62c-.35-.01-.63-.294-.62-.634v-.048c0-.078.01-.157.01-.235.1-1.475.63-2.822 1.53-3.895.84-1.005 2.04-1.738 3.48-2.12 2.29-.607 5.62-.681 8.11.931 1.8 1.251 2.87 3.259 2.87 5.385 0 .34-.28.616-.63.616h-.01c-.35 0-.63-.275-.63-.615 0-1.73-.87-3.365-2.32-4.373-1.75-1.128-4.52-1.429-7.05-.757-1.2.319-2.15.893-2.84 1.709-.73.874-1.16 1.98-1.24 3.199-.01.063-.01.127-.01.19v.051c-.01.333-.29.596-.63.596z" transform="translate(-1076 -337) translate(1076 337)"/>
                <path d="M8 16c-2.03 0-4.05-.331-5.98-.992L.88 14.62c-.33-.113-.5-.465-.38-.786.11-.32.48-.487.81-.375l1.13.388c3.59 1.229 7.54 1.229 11.12 0l1.13-.388c.33-.113.7.055.81.375.12.321-.05.673-.39.786l-1.13.388C12.06 15.669 10.03 16 8 16z" transform="translate(-1076 -337) translate(1076 337)"/>
                <path d="M14.9 14.656c-.26 0-.5-.158-.6-.411-.11-.32.06-.672.39-.785.02-.008.04-.03.04-.054-.01-.34.27-.62.62-.626h.02c.34 0 .62.27.63.606.01.554-.35 1.05-.89 1.235-.06.024-.14.035-.21.035zM8.02 7.943c-1.44 0-2.79-.733-3.52-1.912-.89-1.419-.75-3.306.34-4.589C5.61.539 6.8 0 8.02 0c.48 0 .94.08 1.39.238 1.61.571 2.69 2.071 2.69 3.732 0 1.88-1.38 3.517-3.27 3.893-.27.053-.54.08-.81.08zm0-6.712c-.85 0-1.67.372-2.2.995-.76.885-.85 2.187-.24 3.166.51.814 1.44 1.319 2.44 1.319.18 0 .37-.018.55-.054 1.29-.256 2.26-1.41 2.26-2.687 0-1.128-.76-2.188-1.86-2.576-.3-.108-.62-.163-.95-.163z" transform="translate(-1076 -337) translate(1076 337)"/>
            </g>
        </g>
    </g>
</svg>
