<svg xmlns="http://www.w3.org/2000/svg" width="150" height="150" fill="none" viewBox="0 0 150 150">
	<g clip-path="url(#clip0)">
		<path fill="#DCDDE5" d="M88.494 0C54.579 0 26.987 27.592 26.987 61.506c0 14.852 5.292 28.493 14.09 39.133L0 141.716 8.284 150l41.077-41.077c10.64 8.798 24.28 14.09 39.133 14.09 33.914 0 61.506-27.592 61.506-61.507C150 27.592 122.408 0 88.494 0zm0 111.297c-27.455 0-49.791-22.336-49.791-49.79 0-27.455 22.336-49.792 49.79-49.792 27.455 0 49.792 22.337 49.792 49.791 0 27.455-22.337 49.791-49.791 49.791zm27.959-69.465L96.778 61.506l19.675 19.675-8.285 8.284-19.674-19.674-19.675 19.674-8.284-8.284 19.674-19.675-19.674-19.674 8.284-8.285 19.675 19.675 19.674-19.675 8.285 8.285z" />
	</g>
	<defs>
		<clipPath id="clip0">
			<path fill="#fff" d="M0 0H150V150H0z" />
		</clipPath>
	</defs>
</svg>
